<svg width="50" height="50" viewBox="0 0 50 50" fill="none" xmlns="http://www.w3.org/2000/svg">
<path d="M8.33337 12.5C8.33337 11.9474 8.55287 11.4175 8.94357 11.0268C9.33427 10.6361 9.86417 10.4166 10.4167 10.4166H39.5834C40.1359 10.4166 40.6658 10.6361 41.0565 11.0268C41.4472 11.4175 41.6667 11.9474 41.6667 12.5C41.6667 13.0525 41.4472 13.5824 41.0565 13.9731C40.6658 14.3638 40.1359 14.5833 39.5834 14.5833H10.4167C9.86417 14.5833 9.33427 14.3638 8.94357 13.9731C8.55287 13.5824 8.33337 13.0525 8.33337 12.5Z" fill="white"/>
<path d="M8.33337 37.5C8.33337 36.9474 8.55287 36.4175 8.94357 36.0268C9.33427 35.6361 9.86417 35.4166 10.4167 35.4166H39.5834C40.1359 35.4166 40.6658 35.6361 41.0565 36.0268C41.4472 36.4175 41.6667 36.9474 41.6667 37.5C41.6667 38.0525 41.4472 38.5824 41.0565 38.9731C40.6658 39.3638 40.1359 39.5833 39.5834 39.5833H10.4167C9.86417 39.5833 9.33427 39.3638 8.94357 38.9731C8.55287 38.5824 8.33337 38.0525 8.33337 37.5Z" fill="white"/>
<path d="M10.4167 22.9166C9.86417 22.9166 9.33427 23.1361 8.94357 23.5268C8.55287 23.9175 8.33337 24.4474 8.33337 25C8.33337 25.5525 8.55287 26.0824 8.94357 26.4731C9.33427 26.8638 9.86417 27.0833 10.4167 27.0833H27.0834C27.6359 27.0833 28.1658 26.8638 28.5565 26.4731C28.9472 26.0824 29.1667 25.5525 29.1667 25C29.1667 24.4474 28.9472 23.9175 28.5565 23.5268C28.1658 23.1361 27.6359 22.9166 27.0834 22.9166H10.4167Z" fill="white"/>
</svg>
